<svg width="114" height="25" viewBox="0 0 114 25" fill="none" xmlns="http://www.w3.org/2000/svg">
<path d="M6.41603 22.5628L8.0826 15.358L2.49316 10.5122L9.87738 9.87116L12.749 3.07666L15.6207 9.87116L23.0049 10.5122L17.4154 15.358L19.082 22.5628L12.749 18.7425L6.41603 22.5628Z" fill="#FFC621"/>
<path d="M28.5686 22.5625L30.2352 15.3578L24.6458 10.5119L32.03 9.87092L34.9016 3.07642L37.7732 9.87092L45.1575 10.5119L39.568 15.3578L41.2346 22.5625L34.9016 18.7422L28.5686 22.5625Z" fill="#FFC621"/>
<path d="M50.7212 22.5625L52.3878 15.3578L46.7983 10.5119L54.1826 9.87092L57.0542 3.07642L59.9258 9.87092L67.31 10.5119L61.7206 15.3578L63.3872 22.5625L57.0542 18.7422L50.7212 22.5625Z" fill="#FFC621"/>
<path d="M72.8738 22.5625L74.5404 15.3578L68.9509 10.5119L76.3351 9.87092L79.2068 3.07642L82.0784 9.87092L89.4626 10.5119L83.8732 15.3578L85.5398 22.5625L79.2068 18.7422L72.8738 22.5625Z" fill="#FFC621"/>
<path d="M95.3601 22.5628L97.0267 15.358L91.4373 10.5122L98.8215 9.87116L101.693 3.07666L104.565 9.87116L111.949 10.5122L106.36 15.358L108.026 22.5628L101.693 18.7425L95.3601 22.5628Z" fill="#FFC621"/>
</svg>
